<svg viewBox="0 0 1200 630" xmlns="http://www.w3.org/2000/svg" font-family="DejaVu Sans, Arial, sans-serif">
  <defs>
    <linearGradient id="bg" x1="0" y1="0" x2="1" y2="1">
      <stop offset="0" stop-color="#ffffff"/>
      <stop offset="1" stop-color="#fdf6e3"/>
    </linearGradient>
  </defs>
  <rect width="1200" height="630" fill="url(#bg)"/>
  <rect x="1050" y="-60" width="220" height="220" rx="44" fill="none" stroke="#f0e4c0" stroke-width="3"/>
  <rect x="-70" y="480" width="220" height="220" rx="44" fill="none" stroke="#f0e4c0" stroke-width="3"/>

  <g>
    <rect x="70" y="58" width="38" height="38" rx="9" fill="#1f8b3f"/>
    <rect x="114" y="58" width="38" height="38" rx="9" fill="#2e86c9"/>
    <rect x="70" y="102" width="38" height="38" rx="9" fill="#2e86c9"/>
    <rect x="114" y="102" width="38" height="38" rx="9" fill="#1f8b3f"/>
    <text x="89" y="85" text-anchor="middle" fill="#fff" font-size="22" font-weight="bold">C</text>
    <text x="133" y="85" text-anchor="middle" fill="#fff" font-size="22" font-weight="bold">T</text>
    <text x="89" y="129" text-anchor="middle" fill="#fff" font-size="22" font-weight="bold">L</text>
    <text x="133" y="129" text-anchor="middle" fill="#fff" font-size="22" font-weight="bold">T</text>
  </g>
  <text x="172" y="93" font-size="26" font-weight="bold" fill="#1f8b3f">Cô Thi <tspan fill="#2e86c9">Lập Trình</tspan></text>
  <text x="172" y="124" font-size="17" fill="#75849a" letter-spacing="3">BLOG CHO BA MẸ</text>

  <text x="70" y="262" font-size="52" font-weight="bold" fill="#1E3A63">Có nên cho trẻ</text>
  <text x="70" y="328" font-size="52" font-weight="bold" fill="#1E3A63">học <tspan fill="#1f8b3f">lập trình sớm</tspan>?</text>
  <rect x="72" y="364" width="120" height="8" rx="4" fill="#F2C13D"/>
  <text x="70" y="414" font-size="24" fill="#5b6b82">Lợi ích thật, hiểu lầm thường gặp</text>
  <text x="70" y="450" font-size="24" fill="#5b6b82">và độ tuổi phù hợp để bắt đầu</text>

  <!-- big question mark made of blocks + child square -->
  <g font-weight="bold">
    <text x="920" y="360" text-anchor="middle" font-size="280" fill="#F2C13D">?</text>
    <rect x="790" y="400" width="86" height="86" rx="20" fill="#1f8b3f"/>
    <circle cx="820" cy="434" r="7" fill="#fff"/><circle cx="848" cy="434" r="7" fill="#fff"/>
    <path d="M 818 458 q 16 12 32 0" stroke="#fff" stroke-width="6" fill="none" stroke-linecap="round"/>
    <rect x="980" y="430" width="66" height="66" rx="16" fill="#2e86c9"/>
    <path d="M 996 463 l 12 12 l 24 -26" stroke="#fff" stroke-width="8" fill="none" stroke-linecap="round" stroke-linejoin="round"/>
  </g>
</svg>
