<svg viewBox="0 0 1200 630" xmlns="http://www.w3.org/2000/svg" font-family="DejaVu Sans, Arial, sans-serif">
  <defs>
    <linearGradient id="bg" x1="0" y1="0" x2="1" y2="1">
      <stop offset="0" stop-color="#ffffff"/>
      <stop offset="1" stop-color="#eef0fa"/>
    </linearGradient>
  </defs>
  <rect width="1200" height="630" fill="url(#bg)"/>
  <rect x="1050" y="-60" width="220" height="220" rx="44" fill="none" stroke="#dfe2f1" stroke-width="3"/>
  <rect x="-70" y="480" width="220" height="220" rx="44" fill="none" stroke="#dfe2f1" stroke-width="3"/>

  <g>
    <rect x="70" y="58" width="38" height="38" rx="9" fill="#1f8b3f"/>
    <rect x="114" y="58" width="38" height="38" rx="9" fill="#2e86c9"/>
    <rect x="70" y="102" width="38" height="38" rx="9" fill="#2e86c9"/>
    <rect x="114" y="102" width="38" height="38" rx="9" fill="#1f8b3f"/>
    <text x="89" y="85" text-anchor="middle" fill="#fff" font-size="22" font-weight="bold">C</text>
    <text x="133" y="85" text-anchor="middle" fill="#fff" font-size="22" font-weight="bold">T</text>
    <text x="89" y="129" text-anchor="middle" fill="#fff" font-size="22" font-weight="bold">L</text>
    <text x="133" y="129" text-anchor="middle" fill="#fff" font-size="22" font-weight="bold">T</text>
  </g>
  <text x="172" y="93" font-size="26" font-weight="bold" fill="#1f8b3f">Cô Thi <tspan fill="#2e86c9">Lập Trình</tspan></text>
  <text x="172" y="124" font-size="17" fill="#75849a" letter-spacing="3">BLOG CHO BA MẸ</text>

  <text x="70" y="252" font-size="50" font-weight="bold" fill="#1E3A63"><tspan fill="#2e86c9">AI viết code</tspan> được rồi,</text>
  <text x="70" y="316" font-size="50" font-weight="bold" fill="#1E3A63">trẻ còn cần</text>
  <text x="70" y="380" font-size="50" font-weight="bold" fill="#1E3A63">học <tspan fill="#1f8b3f">lập trình</tspan> không?</text>
  <rect x="72" y="414" width="120" height="8" rx="4" fill="#F2C13D"/>
  <text x="70" y="462" font-size="24" fill="#5b6b82">Điều gì thay đổi, điều gì càng quan trọng hơn</text>

  <!-- robot + child block holding hands -->
  <g>
    <rect x="800" y="230" width="150" height="130" rx="26" fill="#2e86c9"/>
    <rect x="852" y="196" width="46" height="34" rx="10" fill="#2e86c9"/>
    <circle cx="845" cy="285" r="12" fill="#fff"/><circle cx="905" cy="285" r="12" fill="#fff"/>
    <rect x="850" y="318" width="50" height="10" rx="5" fill="#fff"/>
    <circle cx="875" cy="180" r="9" fill="#F2C13D"/>
    <path d="M 875 189 v 7" stroke="#F2C13D" stroke-width="5"/>
    <rect x="1010" y="260" width="110" height="100" rx="22" fill="#1f8b3f"/>
    <circle cx="1046" cy="298" r="9" fill="#fff"/><circle cx="1086" cy="298" r="9" fill="#fff"/>
    <path d="M 1046 330 q 20 14 40 0" stroke="#fff" stroke-width="6" fill="none" stroke-linecap="round"/>
    <path d="M 950 320 q 30 20 60 8" stroke="#F2C13D" stroke-width="7" fill="none" stroke-linecap="round"/>
    <text x="965" y="470" text-anchor="middle" font-size="19" fill="#75849a">AI là công cụ, tư duy vẫn là của con</text>
  </g>
</svg>
