<svg xmlns="http://www.w3.org/2000/svg" viewBox="0 0 1600 620" width="1600" height="620" font-family="DejaVu Sans, Liberation Sans, Arial, sans-serif">
  <rect width="1600" height="620" rx="28" fill="#f6f9fc"/>
  <rect x="1" y="1" width="1598" height="618" rx="28" fill="none" stroke="#e9ecf2" stroke-width="2"/>
  <text x="800" y="80" text-anchor="middle" font-size="40" font-weight="bold" fill="#1E3A63">Lộ trình 10 tuần của seri Học cách học cùng AI</text>
  <text x="800" y="126" text-anchor="middle" font-size="25" fill="#75849a">Mỗi tuần: 10 phút đọc bài, 15 phút làm bài tập, cả tuần áp dụng</text>
  <line x1="120" y1="300" x2="1480" y2="300" stroke="#e9ecf2" stroke-width="8" stroke-linecap="round"/>
  <circle cx="120" cy="300" r="34" fill="#1f8b3f"/>
  <text x="120" y="312" text-anchor="middle" font-size="30" font-weight="bold" fill="#ffffff">1</text>
  <text x="120" y="238" text-anchor="middle" font-size="23" fill="#1E3A63">Mở đầu</text>
  <circle cx="271" cy="300" r="34" fill="#2e86c9"/>
  <text x="271" y="312" text-anchor="middle" font-size="30" font-weight="bold" fill="#ffffff">2</text>
  <text x="271" y="388" text-anchor="middle" font-size="23" fill="#1E3A63">Não bộ</text>
  <circle cx="422" cy="300" r="34" fill="#1f8b3f"/>
  <text x="422" y="312" text-anchor="middle" font-size="30" font-weight="bold" fill="#ffffff">3</text>
  <text x="422" y="238" text-anchor="middle" font-size="23" fill="#1E3A63">Ghi nhớ</text>
  <circle cx="573" cy="300" r="34" fill="#2e86c9"/>
  <text x="573" y="312" text-anchor="middle" font-size="30" font-weight="bold" fill="#ffffff">4</text>
  <text x="573" y="388" text-anchor="middle" font-size="23" fill="#1E3A63">Đọc và ghi chú</text>
  <circle cx="724" cy="300" r="34" fill="#1f8b3f"/>
  <text x="724" y="312" text-anchor="middle" font-size="30" font-weight="bold" fill="#ffffff">5</text>
  <text x="724" y="238" text-anchor="middle" font-size="23" fill="#1E3A63">Thời gian</text>
  <circle cx="875" cy="300" r="34" fill="#2e86c9"/>
  <text x="875" y="312" text-anchor="middle" font-size="30" font-weight="bold" fill="#ffffff">6</text>
  <text x="875" y="388" text-anchor="middle" font-size="23" fill="#1E3A63">Feynman</text>
  <circle cx="1026" cy="300" r="34" fill="#1f8b3f"/>
  <text x="1026" y="312" text-anchor="middle" font-size="30" font-weight="bold" fill="#ffffff">7</text>
  <text x="1026" y="238" text-anchor="middle" font-size="23" fill="#1E3A63">Viết PEEL</text>
  <circle cx="1177" cy="300" r="34" fill="#2e86c9"/>
  <text x="1177" y="312" text-anchor="middle" font-size="30" font-weight="bold" fill="#ffffff">8</text>
  <text x="1177" y="388" text-anchor="middle" font-size="23" fill="#1E3A63">Hỏi AI</text>
  <circle cx="1328" cy="300" r="34" fill="#1f8b3f"/>
  <text x="1328" y="312" text-anchor="middle" font-size="30" font-weight="bold" fill="#ffffff">9</text>
  <text x="1328" y="238" text-anchor="middle" font-size="23" fill="#1E3A63">Portfolio</text>
  <circle cx="1479" cy="300" r="34" fill="#2e86c9"/>
  <text x="1479" y="312" text-anchor="middle" font-size="30" font-weight="bold" fill="#ffffff">10</text>
  <text x="1479" y="388" text-anchor="middle" font-size="23" fill="#1E3A63">Tổng kết</text>
  <rect x="300" y="440" width="1000" height="88" rx="26" fill="#ffffff" stroke="#F2C13D" stroke-width="3"/>
  <text x="800" y="494" text-anchor="middle" font-size="27" font-weight="bold" fill="#1E3A63">Đọc dồn 10 bài trong một tối thì không kỹ năng nào ở lại</text>
  <text x="800" y="590" text-anchor="middle" font-size="23" fill="#75849a">Cô Thi Lập Trình  |  cothilaptrinh.vn</text>
</svg>
