<svg viewBox="0 0 1200 630" xmlns="http://www.w3.org/2000/svg" font-family="DejaVu Sans, Arial, sans-serif">
  <defs>
    <linearGradient id="bg" x1="0" y1="0" x2="1" y2="1">
      <stop offset="0" stop-color="#ffffff"/>
      <stop offset="1" stop-color="#e9f1fa"/>
    </linearGradient>
  </defs>
  <rect width="1200" height="630" fill="url(#bg)"/>

  <!-- decorative faint squares -->
  <rect x="1050" y="-60" width="220" height="220" rx="44" fill="none" stroke="#dde8f3" stroke-width="3"/>
  <rect x="-70" y="480" width="220" height="220" rx="44" fill="none" stroke="#dde8f3" stroke-width="3"/>

  <!-- monogram 2x2 -->
  <g>
    <rect x="70" y="58" width="38" height="38" rx="9" fill="#1f8b3f"/>
    <rect x="114" y="58" width="38" height="38" rx="9" fill="#2e86c9"/>
    <rect x="70" y="102" width="38" height="38" rx="9" fill="#2e86c9"/>
    <rect x="114" y="102" width="38" height="38" rx="9" fill="#1f8b3f"/>
    <text x="89" y="85" text-anchor="middle" fill="#fff" font-size="22" font-weight="bold">C</text>
    <text x="133" y="85" text-anchor="middle" fill="#fff" font-size="22" font-weight="bold">T</text>
    <text x="89" y="129" text-anchor="middle" fill="#fff" font-size="22" font-weight="bold">L</text>
    <text x="133" y="129" text-anchor="middle" fill="#fff" font-size="22" font-weight="bold">T</text>
  </g>
  <text x="172" y="93" font-size="26" font-weight="bold" fill="#1f8b3f">Cô Thi <tspan fill="#2e86c9">Lập Trình</tspan></text>
  <text x="172" y="124" font-size="17" fill="#75849a" letter-spacing="3">BLOG CHO BA MẸ</text>

  <!-- title -->
  <text x="70" y="252" font-size="50" font-weight="bold" fill="#1E3A63"><tspan fill="#1f8b3f">Top 7</tspan> trang web học</text>
  <text x="70" y="316" font-size="50" font-weight="bold" fill="#1E3A63">lập trình cho trẻ em</text>
  <text x="70" y="380" font-size="50" font-weight="bold" fill="#1E3A63">miễn phí <tspan fill="#1f8b3f">theo độ tuổi</tspan></text>
  <rect x="72" y="414" width="120" height="8" rx="4" fill="#F2C13D"/>
  <text x="70" y="462" font-size="24" fill="#5b6b82">Chọn đúng nền tảng cho con từ 4 đến 15 tuổi</text>

  <!-- staircase -->
  <g font-weight="bold" text-anchor="middle">
    <path d="M 812 505 L 872 505 M 922 415 L 982 415 M 1032 325 L 1092 325" stroke="#b9c8da" stroke-width="4" stroke-dasharray="2 9" stroke-linecap="round" fill="none"/>
    <rect x="702" y="450" width="110" height="110" rx="24" fill="#1f8b3f"/>
    <text x="757" y="516" font-size="34" fill="#fff">4–6</text>
    <rect x="812" y="360" width="110" height="110" rx="24" fill="#2e86c9"/>
    <text x="867" y="426" font-size="34" fill="#fff">7–9</text>
    <rect x="922" y="270" width="110" height="110" rx="24" fill="#F2C13D"/>
    <text x="977" y="336" font-size="30" fill="#1E3A63">10–12</text>
    <rect x="1032" y="180" width="110" height="110" rx="24" fill="#1E3A63"/>
    <text x="1087" y="246" font-size="30" fill="#fff">13–15</text>
    <g font-weight="normal" font-size="16" fill="#75849a">
      <text x="757" y="588">Chơi mà học</text>
      <text x="867" y="498">Logic</text>
      <text x="977" y="408">Dự án nhỏ</text>
      <text x="1087" y="318">Sản phẩm thật</text>
    </g>
  </g>
</svg>
