<svg viewBox="0 0 1600 680" xmlns="http://www.w3.org/2000/svg" font-family="Arial, 'Helvetica Neue', sans-serif">
  <rect width="1600" height="680" rx="28" fill="#f3f8fd"/>
  <rect x="1420" y="-70" width="240" height="240" rx="52" fill="none" stroke="#dcebf7" stroke-width="4"/>

  <!-- age badge -->
  <rect x="90" y="90" width="190" height="76" rx="20" fill="#2e86c9"/>
  <text x="185" y="140" text-anchor="middle" font-size="34" font-weight="bold" fill="#fff">7–9 tuổi</text>
  <text x="90" y="230" font-size="34" font-weight="bold" fill="#1E3A63">Làm quen với logic</text>
  <text x="90" y="278" font-size="34" font-weight="bold" fill="#1E3A63">và tuần tự</text>
  <rect x="92" y="306" width="90" height="7" rx="3.5" fill="#F2C13D"/>
  <text x="90" y="360" font-size="22" fill="#5b6b82">Một chương trình là tập hợp</text>
  <text x="90" y="392" font-size="22" fill="#5b6b82">các bước có trật tự.</text>

  <!-- flowchart -->
  <g text-anchor="middle">
    <rect x="700" y="120" width="230" height="80" rx="40" fill="#1f8b3f"/>
    <text x="815" y="170" font-size="26" font-weight="bold" fill="#fff">Bắt đầu</text>
    <path d="M 815 200 v 50" stroke="#9db3cc" stroke-width="5" stroke-linecap="round"/>
    <path d="M 800 242 l 15 22 l 15 -22 z" fill="#9db3cc"/>

    <path d="M 815 270 L 965 355 L 815 440 L 665 355 Z" fill="#F2C13D"/>
    <text x="815" y="348" font-size="24" font-weight="bold" fill="#1E3A63">chạm cạnh</text>
    <text x="815" y="380" font-size="24" font-weight="bold" fill="#1E3A63">màn hình?</text>

    <path d="M 965 355 H 1120" stroke="#9db3cc" stroke-width="5" stroke-linecap="round"/>
    <path d="M 1112 340 l 22 15 l -22 15 z" fill="#9db3cc"/>
    <text x="1042" y="335" font-size="21" fill="#75849a">đúng</text>
    <rect x="1140" y="315" width="250" height="80" rx="24" fill="#2e86c9"/>
    <text x="1265" y="365" font-size="25" font-weight="bold" fill="#fff">quay đầu lại</text>

    <path d="M 815 440 v 60" stroke="#9db3cc" stroke-width="5" stroke-linecap="round"/>
    <path d="M 800 492 l 15 22 l -15 22 z" fill="none"/>
    <path d="M 800 492 l 15 22 l 15 -22 z" fill="#9db3cc"/>
    <text x="870" y="482" font-size="21" fill="#75849a">sai</text>
    <rect x="690" y="520" width="250" height="80" rx="24" fill="#1E3A63"/>
    <text x="815" y="570" font-size="25" font-weight="bold" fill="#fff">đi tiếp 10 bước</text>

    <!-- loop back -->
    <path d="M 690 560 H 560 Q 520 560 520 520 V 200 Q 520 160 560 160 H 700" stroke="#9db3cc" stroke-width="5" fill="none" stroke-dasharray="10 10" stroke-linecap="round"/>
    <text x="472" y="370" font-size="21" fill="#75849a" transform="rotate(-90 472 370)">lặp lại mãi mãi</text>
  </g>
</svg>
