<svg viewBox="0 0 1600 680" xmlns="http://www.w3.org/2000/svg" font-family="Arial, 'Helvetica Neue', sans-serif">
  <rect width="1600" height="680" rx="28" fill="#fdfaf1"/>
  <rect x="-70" y="480" width="240" height="240" rx="52" fill="none" stroke="#f3e6bd" stroke-width="4"/>

  <!-- age badge -->
  <rect x="90" y="90" width="220" height="76" rx="20" fill="#F2C13D"/>
  <text x="200" y="140" text-anchor="middle" font-size="34" font-weight="bold" fill="#1E3A63">10-12 tuổi</text>
  <text x="90" y="230" font-size="34" font-weight="bold" fill="#1E3A63">Dự án riêng đầu tiên</text>
  <rect x="92" y="258" width="90" height="7" rx="3.5" fill="#F2C13D"/>
  <text x="90" y="312" font-size="22" fill="#5b6b82">Biến, hàm, vòng lặp, và một</text>
  <text x="90" y="344" font-size="22" fill="#5b6b82">trò chơi do chính con tạo ra.</text>

  <!-- game window -->
  <g>
    <rect x="620" y="110" width="440" height="440" rx="24" fill="#1E3A63"/>
    <rect x="620" y="110" width="440" height="56" rx="24" fill="#13294a"/>
    <rect x="620" y="140" width="440" height="26" fill="#13294a"/>
    <circle cx="656" cy="138" r="9" fill="#e0655f"/>
    <circle cx="686" cy="138" r="9" fill="#F2C13D"/>
    <circle cx="716" cy="138" r="9" fill="#57c07d"/>
    <text x="980" y="212" font-size="24" font-weight="bold" fill="#F2C13D" text-anchor="end">Điểm: 120</text>
    <!-- platforms -->
    <rect x="660" y="470" width="360" height="20" rx="10" fill="#1f8b3f"/>
    <rect x="660" y="360" width="150" height="18" rx="9" fill="#2e86c9"/>
    <rect x="880" y="290" width="140" height="18" rx="9" fill="#2e86c9"/>
    <!-- character -->
    <rect x="700" y="298" width="56" height="56" rx="14" fill="#F2C13D"/>
    <circle cx="718" cy="320" r="6" fill="#1E3A63"/>
    <circle cx="740" cy="320" r="6" fill="#1E3A63"/>
    <path d="M 716 338 q 12 10 24 0" stroke="#1E3A63" stroke-width="4" fill="none" stroke-linecap="round"/>
    <!-- star to collect -->
    <path d="M 940 240 l 11 24 l 26 4 l -19 19 l 5 26 l -23 -13 l -23 13 l 5 -26 l -19 -19 l 26 -4 z" fill="#F2C13D"/>
  </g>

  <!-- code panel -->
  <g font-family="DejaVu Sans Mono, Consolas, monospace" font-size="22">
    <rect x="1120" y="150" width="380" height="360" rx="24" fill="#ffffff" stroke="#e9ecf2" stroke-width="3"/>
    <text x="1150" y="212" fill="#75849a">score = 0</text>
    <text x="1150" y="256" fill="#2e86c9">def <tspan fill="#1E3A63">an_sao():</tspan></text>
    <text x="1190" y="300" fill="#1E3A63">score += 10</text>
    <text x="1150" y="344" fill="#1f8b3f">while <tspan fill="#1E3A63">dang_choi:</tspan></text>
    <text x="1190" y="388" fill="#1E3A63">di_chuyen()</text>
    <text x="1190" y="432" fill="#1E3A63">nhay()</text>
    <!-- ladybug: debugging -->
    <g transform="translate(1440 462)">
      <circle r="26" fill="#fdf3d3"/>
      <ellipse rx="14" ry="16" fill="#e0655f"/>
      <circle cy="-14" r="7" fill="#1E3A63"/>
      <path d="M 0 -8 V 15" stroke="#1E3A63" stroke-width="2.5"/>
      <circle cx="-6" cy="-2" r="2.5" fill="#1E3A63"/>
      <circle cx="6" cy="4" r="2.5" fill="#1E3A63"/>
    </g>
  </g>
</svg>
