<svg viewBox="0 0 1200 630" xmlns="http://www.w3.org/2000/svg" font-family="DejaVu Sans, Arial, sans-serif">
  <defs>
    <linearGradient id="bg" x1="0" y1="0" x2="1" y2="1">
      <stop offset="0" stop-color="#ffffff"/>
      <stop offset="1" stop-color="#e9f1fa"/>
    </linearGradient>
  </defs>
  <rect width="1200" height="630" fill="url(#bg)"/>
  <rect x="1050" y="-60" width="220" height="220" rx="44" fill="none" stroke="#dde8f3" stroke-width="3"/>
  <rect x="-70" y="480" width="220" height="220" rx="44" fill="none" stroke="#dde8f3" stroke-width="3"/>

  <g>
    <rect x="70" y="58" width="38" height="38" rx="9" fill="#1f8b3f"/>
    <rect x="114" y="58" width="38" height="38" rx="9" fill="#2e86c9"/>
    <rect x="70" y="102" width="38" height="38" rx="9" fill="#2e86c9"/>
    <rect x="114" y="102" width="38" height="38" rx="9" fill="#1f8b3f"/>
    <text x="89" y="85" text-anchor="middle" fill="#fff" font-size="22" font-weight="bold">C</text>
    <text x="133" y="85" text-anchor="middle" fill="#fff" font-size="22" font-weight="bold">T</text>
    <text x="89" y="129" text-anchor="middle" fill="#fff" font-size="22" font-weight="bold">L</text>
    <text x="133" y="129" text-anchor="middle" fill="#fff" font-size="22" font-weight="bold">T</text>
  </g>
  <text x="172" y="93" font-size="26" font-weight="bold" fill="#1f8b3f">Cô Thi <tspan fill="#2e86c9">Lập Trình</tspan></text>
  <text x="172" y="124" font-size="17" fill="#75849a" letter-spacing="3">BLOG LỘ TRÌNH HỌC</text>

  <text x="70" y="272" font-size="54" font-weight="bold" fill="#1E3A63"><tspan fill="#1f8b3f">Python</tspan> hay <tspan fill="#2e86c9">C/C++</tspan></text>
  <text x="70" y="340" font-size="54" font-weight="bold" fill="#1E3A63">nên học gì trước?</text>
  <rect x="72" y="376" width="120" height="8" rx="4" fill="#F2C13D"/>
  <text x="70" y="424" font-size="24" fill="#5b6b82">Chọn theo mục tiêu, không theo phong trào</text>

  <!-- seesaw balance -->
  <g>
    <path d="M 770 470 H 1130" stroke="#1E3A63" stroke-width="10" stroke-linecap="round" transform="rotate(-6 950 470)"/>
    <path d="M 950 480 l -34 60 h 68 z" fill="#F2C13D"/>
    <rect x="790" y="330" width="130" height="130" rx="28" fill="#1f8b3f" transform="rotate(-6 950 470)"/>
    <text x="855" y="410" text-anchor="middle" font-size="40" font-weight="bold" fill="#fff" transform="rotate(-6 950 470)">Py</text>
    <rect x="990" y="352" width="130" height="130" rx="28" fill="#2e86c9" transform="rotate(-6 950 470)"/>
    <text x="1055" y="432" text-anchor="middle" font-size="36" font-weight="bold" fill="#fff" transform="rotate(-6 950 470)">C++</text>
  </g>
  <text x="950" y="590" text-anchor="middle" font-size="19" fill="#75849a">dễ bắt đầu hơn / mạnh cho thi đấu</text>
</svg>
